<?xml version="1.0" encoding="UTF-8"?>
<svg version="1.1" xmlns="http://www.w3.org/2000/svg" width="48" height="48">
<path d="M0 0 C2.75 1.1875 2.75 1.1875 4.6875 3.4375 C5.97244671 6.76324442 6.11591006 7.89324633 4.75 11.1875 C3.28976659 12.74961016 1.74637556 14.18607437 0.17578125 15.63671875 C-1.87559662 17.86794344 -2.46379294 20.30474077 -3.25 23.1875 C-3.91 23.8475 -4.57 24.5075 -5.25 25.1875 C-6.03673096 25.15567627 -6.82346191 25.12385254 -7.6340332 25.09106445 C-10.31175467 24.94039303 -10.31175467 24.94039303 -12.21948242 26.66870117 C-12.84185791 27.34908447 -13.4642334 28.02946777 -14.10546875 28.73046875 C-15.16411133 29.84711914 -15.16411133 29.84711914 -16.24414062 30.98632812 C-17.68771562 32.55844943 -19.13044712 34.13134576 -20.57226562 35.70507812 C-25.62075933 41.02769818 -30.47428127 44.35863082 -37.25 47.1875 C-38.57 45.8675 -39.89 44.5475 -41.25 43.1875 C-37.56855851 34.13728968 -31.74286344 28.276832 -24.63671875 21.75976562 C-23.94449219 21.10943359 -23.25226562 20.45910156 -22.5390625 19.7890625 C-21.90693848 19.21494629 -21.27481445 18.64083008 -20.62353516 18.04931641 C-18.84603422 15.63992748 -19.08359508 14.11610644 -19.25 11.1875 C-17.60010513 8.71265769 -16.36618106 8.22182622 -13.5 7.375 C-10.29822395 6.20512029 -9.13444258 5.2894869 -6.75 3 C-4.15682588 0.65925875 -3.6409645 0.21005564 0 0 Z M-6.3125 6.6875 C-7.04597656 7.3371875 -7.77945313 7.986875 -8.53515625 8.65625 C-9.10105469 9.1615625 -9.66695312 9.666875 -10.25 10.1875 C-7.775 13.1575 -7.775 13.1575 -5.25 16.1875 C-4.09775972 15.25788578 -2.95340824 14.3184875 -1.8125 13.375 C-1.17441406 12.85292969 -0.53632812 12.33085937 0.12109375 11.79296875 C2.0048275 10.17915589 2.0048275 10.17915589 2.75 7.1875 C1.43799596 5.83317325 0.10368596 4.50016518 -1.25 3.1875 C-3.24924273 3.1875 -4.90992223 5.44076421 -6.3125 6.6875 Z M-14.25 11.1875 C-14.65694193 15.0178084 -14.65694193 15.0178084 -12.9375 16.890625 C-12.1021875 17.65632813 -12.1021875 17.65632813 -11.25 18.4375 C-10.693125 18.95828125 -10.13625 19.4790625 -9.5625 20.015625 C-9.129375 20.40234375 -8.69625 20.7890625 -8.25 21.1875 C-7.26 20.8575 -6.27 20.5275 -5.25 20.1875 C-6.18274109 19.05855124 -7.12140122 17.93449124 -8.0625 16.8125 C-8.58457031 16.18601562 -9.10664062 15.55953125 -9.64453125 14.9140625 C-11.33225739 12.9653952 -11.33225739 12.9653952 -14.25 11.1875 Z M-16.25 18.1875 C-19.24551271 21.06682096 -22.21831323 23.96855831 -25.1875 26.875 C-26.03763672 27.69162109 -26.88777344 28.50824219 -27.76367188 29.34960938 C-28.57255859 30.14560547 -29.38144531 30.94160156 -30.21484375 31.76171875 C-30.9637085 32.48963623 -31.71257324 33.21755371 -32.48413086 33.9675293 C-34.43924106 36.42540529 -34.90584604 38.09960823 -35.25 41.1875 C-30.82276936 40.69407306 -28.90035853 39.31700554 -25.82421875 36.15234375 C-24.63022461 34.93901367 -24.63022461 34.93901367 -23.41210938 33.70117188 C-22.59548828 32.85103516 -21.77886719 32.00089844 -20.9375 31.125 C-19.68356445 29.84399414 -19.68356445 29.84399414 -18.40429688 28.53710938 C-16.34357656 26.42928688 -14.29276791 24.31270151 -12.25 22.1875 C-13.57 20.8675 -14.89 19.5475 -16.25 18.1875 Z " fill="#ffffff" transform="translate(42.25,-0.1875)"/>
</svg>
